<?xml version="1.0" encoding="UTF-8"?><svg id="Layer_2" xmlns="http://www.w3.org/2000/svg" viewBox="0 0 512 512"><defs><style>.cls-1{fill:#eab454;}.cls-2{fill:#222e3c;}</style></defs><g id="Layer_4"><rect class="cls-2" width="512" height="512" rx="75.24" ry="75.24"/><g><path class="cls-1" d="M183.53,354.71c-43.48-5.8-77.03-43.03-77.03-88.1v-13.22c0-53.51,43.38-96.89,96.89-96.89h57.14c3.37,0,6.37-2.11,7.52-5.27l21.47-58.99c1.9-5.22-1.97-10.75-7.52-10.75h-83.27c-92.36,0-167.24,74.88-167.24,167.24v22.53c0,77.51,55.38,142.08,128.73,156.31,3.89,.75,7.75-1.39,9.11-5.11l20.77-57.06c1.77-4.85-1.46-10.01-6.58-10.69Z"/><path class="cls-1" d="M472.49,81.5h-121.3c-3.37,0-6.37,2.11-7.52,5.27l-21.47,58.99c-1.9,5.22,1.97,10.75,7.52,10.75h67.77c4.42,0,8.01,3.58,8.01,8.01v94.1c0,53.51-43.38,96.89-96.89,96.89h-57.14c-3.37,0-6.37,2.11-7.52,5.27l-21.47,58.99c-1.9,5.22,1.97,10.75,7.52,10.75h83.27c92.36,0,167.24-74.88,167.24-167.24V89.51c0-4.42-3.58-8.01-8.01-8.01Z"/><path class="cls-1" d="M256,321c19.52,0,35.94-13.32,40.64-31.37,1.4-5.37-2.61-10.63-8.16-10.63-3.84,0-7.31,2.53-8.27,6.25-2.77,10.78-12.56,18.75-24.21,18.75s-21.44-7.97-24.21-18.75c-.96-3.72-4.43-6.25-8.27-6.25-5.55,0-9.56,5.26-8.16,10.63,4.71,18.05,21.12,31.37,40.64,31.37Z"/><circle class="cls-1" cx="334" cy="241" r="27"/><circle class="cls-1" cx="179" cy="241" r="27"/></g></g></svg>