<?xml version="1.0" encoding="UTF-8"?><svg id="a" xmlns="http://www.w3.org/2000/svg" xmlns:xlink="http://www.w3.org/1999/xlink" viewBox="0 0 512 512"><defs><style>.c{fill:#151515;}.d{fill:url(#b);}</style><linearGradient id="b" x1="81" y1="256" x2="431" y2="256" gradientTransform="matrix(1, 0, 0, 1, 0, 0)" gradientUnits="userSpaceOnUse"><stop offset=".2" stop-color="#60aef0"/><stop offset="1" stop-color="#9560c6"/></linearGradient></defs><rect class="c" x="0" width="512" height="512" rx="60" ry="60"/><path class="d" d="M256,423.1c-32.89,0-62.61-7.34-89.15-22.04-26.54-14.69-47.48-34.76-62.83-60.2-15.36-25.43-23.03-53.95-23.03-85.53s7.67-59.87,23.03-84.87c15.35-25,36.18-44.84,62.5-59.54,26.32-14.69,56.14-22.04,89.48-22.04s63.16,7.24,89.47,21.71c26.32,14.47,47.14,34.32,62.5,59.54,15.35,25.23,23.03,53.62,23.03,85.2s-7.68,60.09-23.03,85.53c-15.36,25.44-36.18,45.51-62.5,60.2-26.32,14.7-56.15,22.04-89.47,22.04Zm0-91.45c14.47,0,27.19-3.18,38.16-9.54,10.96-6.35,19.41-15.35,25.33-26.97,5.92-11.62,8.88-24.89,8.88-39.8s-3.08-27.96-9.21-39.14c-6.15-11.18-14.59-19.95-25.33-26.32-10.75-6.35-23.36-9.54-37.83-9.54s-26.54,3.19-37.5,9.54c-10.97,6.36-19.52,15.24-25.66,26.64-6.15,11.41-9.21,24.57-9.21,39.47s3.06,27.53,9.21,39.14c6.14,11.63,14.69,20.62,25.66,26.97,10.96,6.36,23.46,9.54,37.5,9.54Z"/></svg>